<mxfile host="65bd71144e">
    <diagram id="C5RBs43oDa-KdzZeNtuy" name="Page-1">
        <mxGraphModel dx="2176" dy="533" grid="1" gridSize="10" guides="1" tooltips="1" connect="1" arrows="1" fold="1" page="1" pageScale="1" pageWidth="827" pageHeight="1169" math="0" shadow="0">
            <root>
                <mxCell id="WIyWlLk6GJQsqaUBKTNV-0"/>
                <mxCell id="WIyWlLk6GJQsqaUBKTNV-1" parent="WIyWlLk6GJQsqaUBKTNV-0"/>
                <mxCell id="cQZg4SeEy35CJQ6VwM8x-12" style="edgeStyle=orthogonalEdgeStyle;rounded=0;orthogonalLoop=1;jettySize=auto;html=1;entryX=0;entryY=0.5;entryDx=0;entryDy=0;" parent="WIyWlLk6GJQsqaUBKTNV-1" target="ZYwFMBQIWgv-eiatx3Tv-1" edge="1">
                    <mxGeometry relative="1" as="geometry">
                        <mxPoint x="840.5" y="100" as="sourcePoint"/>
                        <mxPoint x="880.5" y="100" as="targetPoint"/>
                    </mxGeometry>
                </mxCell>
                <mxCell id="cQZg4SeEy35CJQ6VwM8x-14" value="Basic architecture" style="swimlane;horizontal=0;strokeWidth=2;fillColor=#E6E6E6;" parent="WIyWlLk6GJQsqaUBKTNV-1" vertex="1">
                    <mxGeometry x="-380" y="40" width="2500" height="120" as="geometry">
                        <mxRectangle x="-390" y="50" width="30" height="140" as="alternateBounds"/>
                    </mxGeometry>
                </mxCell>
                <mxCell id="ZYwFMBQIWgv-eiatx3Tv-0" value="Hash &amp;nbsp;File&amp;nbsp;" style="rounded=0;whiteSpace=wrap;html=1;" parent="cQZg4SeEy35CJQ6VwM8x-14" vertex="1">
                    <mxGeometry x="1070" y="40" width="360" height="40" as="geometry"/>
                </mxCell>
                <mxCell id="ZYwFMBQIWgv-eiatx3Tv-1" value="Compare file hashes&amp;nbsp;" style="rounded=0;whiteSpace=wrap;html=1;" parent="cQZg4SeEy35CJQ6VwM8x-14" vertex="1">
                    <mxGeometry x="2040" y="40" width="360" height="40" as="geometry"/>
                </mxCell>
                <mxCell id="cQZg4SeEy35CJQ6VwM8x-4" style="edgeStyle=orthogonalEdgeStyle;rounded=0;orthogonalLoop=1;jettySize=auto;html=1;entryX=0;entryY=0.5;entryDx=0;entryDy=0;exitX=1;exitY=0.5;exitDx=0;exitDy=0;exitPerimeter=0;" parent="cQZg4SeEy35CJQ6VwM8x-14" source="ZYwFMBQIWgv-eiatx3Tv-2" target="ZYwFMBQIWgv-eiatx3Tv-0" edge="1">
                    <mxGeometry relative="1" as="geometry">
                        <mxPoint x="420" y="60" as="sourcePoint"/>
                        <mxPoint x="860.5" y="60" as="targetPoint"/>
                    </mxGeometry>
                </mxCell>
                <mxCell id="ZYwFMBQIWgv-eiatx3Tv-2" value="" style="strokeWidth=2;html=1;shape=mxgraph.flowchart.start_2;whiteSpace=wrap;" parent="cQZg4SeEy35CJQ6VwM8x-14" vertex="1">
                    <mxGeometry x="100" y="35" width="50" height="50" as="geometry"/>
                </mxCell>
                <mxCell id="ZYwFMBQIWgv-eiatx3Tv-6" value="checkFile(filename)" style="text;html=1;align=center;verticalAlign=middle;resizable=0;points=[];autosize=1;strokeColor=none;fillColor=none;" parent="cQZg4SeEy35CJQ6VwM8x-14" vertex="1">
                    <mxGeometry x="65" y="90" width="120" height="20" as="geometry"/>
                </mxCell>
                <mxCell id="cQZg4SeEy35CJQ6VwM8x-17" value="Blockchain" style="swimlane;horizontal=0;strokeWidth=2;fillColor=#E6E6E6;" parent="WIyWlLk6GJQsqaUBKTNV-1" vertex="1">
                    <mxGeometry x="-380" y="560" width="2500" height="110" as="geometry">
                        <mxRectangle x="-390" y="50" width="30" height="140" as="alternateBounds"/>
                    </mxGeometry>
                </mxCell>
                <mxCell id="ZYwFMBQIWgv-eiatx3Tv-65" value="getFileHash" style="rounded=0;whiteSpace=wrap;html=1;" parent="cQZg4SeEy35CJQ6VwM8x-17" vertex="1">
                    <mxGeometry x="1680" y="35" width="230" height="40" as="geometry"/>
                </mxCell>
                <mxCell id="ZYwFMBQIWgv-eiatx3Tv-5" value="&lt;div style=&quot;color: rgb(212 , 212 , 212) ; background-color: rgb(30 , 30 , 30) ; font-family: &amp;#34;menlo&amp;#34; , &amp;#34;monaco&amp;#34; , &amp;#34;courier new&amp;#34; , monospace ; font-size: 15px ; line-height: 23px&quot;&gt;&lt;br&gt;&lt;/div&gt;" style="text;html=1;align=center;verticalAlign=middle;resizable=0;points=[];autosize=1;strokeColor=none;fillColor=none;" parent="WIyWlLk6GJQsqaUBKTNV-1" vertex="1">
                    <mxGeometry x="-650" y="305" width="20" height="30" as="geometry"/>
                </mxCell>
                <mxCell id="ZYwFMBQIWgv-eiatx3Tv-7" value="" style="endArrow=none;dashed=1;html=1;dashPattern=1 3;strokeWidth=2;rounded=0;" parent="WIyWlLk6GJQsqaUBKTNV-1" edge="1">
                    <mxGeometry width="50" height="50" relative="1" as="geometry">
                        <mxPoint x="360" y="670" as="sourcePoint"/>
                        <mxPoint x="360" y="40" as="targetPoint"/>
                    </mxGeometry>
                </mxCell>
                <mxCell id="ZYwFMBQIWgv-eiatx3Tv-24" value="Python Application" style="swimlane;childLayout=stackLayout;resizeParent=1;resizeParentMax=0;horizontal=0;startSize=20;horizontalStack=0;labelBackgroundColor=#E6E6E6;fillColor=#E6E6E6;strokeWidth=2;" parent="WIyWlLk6GJQsqaUBKTNV-1" vertex="1">
                    <mxGeometry x="-380" y="190" width="2500" height="340" as="geometry"/>
                </mxCell>
                <mxCell id="ZYwFMBQIWgv-eiatx3Tv-25" value="Script.py" style="swimlane;startSize=20;horizontal=0;" parent="ZYwFMBQIWgv-eiatx3Tv-24" vertex="1">
                    <mxGeometry x="20" width="2480" height="170" as="geometry"/>
                </mxCell>
                <mxCell id="ZYwFMBQIWgv-eiatx3Tv-37" style="edgeStyle=orthogonalEdgeStyle;rounded=0;orthogonalLoop=1;jettySize=auto;html=1;startArrow=none;" parent="ZYwFMBQIWgv-eiatx3Tv-25" source="ZYwFMBQIWgv-eiatx3Tv-32" target="ZYwFMBQIWgv-eiatx3Tv-29" edge="1">
                    <mxGeometry relative="1" as="geometry"/>
                </mxCell>
                <mxCell id="ZYwFMBQIWgv-eiatx3Tv-31" value="file exists?&amp;nbsp;" style="rhombus;whiteSpace=wrap;html=1;" parent="ZYwFMBQIWgv-eiatx3Tv-25" vertex="1">
                    <mxGeometry x="760" y="30" width="80" height="80" as="geometry"/>
                </mxCell>
                <mxCell id="ZYwFMBQIWgv-eiatx3Tv-29" value="checkFileLenght" style="rounded=0;whiteSpace=wrap;html=1;" parent="ZYwFMBQIWgv-eiatx3Tv-25" vertex="1">
                    <mxGeometry x="920" y="50" width="230" height="40" as="geometry"/>
                </mxCell>
                <mxCell id="ZYwFMBQIWgv-eiatx3Tv-34" value="no" style="text;html=1;strokeColor=none;fillColor=none;align=center;verticalAlign=middle;whiteSpace=wrap;rounded=0;" parent="ZYwFMBQIWgv-eiatx3Tv-25" vertex="1">
                    <mxGeometry x="740" y="100" width="60" height="30" as="geometry"/>
                </mxCell>
                <mxCell id="ZYwFMBQIWgv-eiatx3Tv-33" value="sleep&amp;nbsp;" style="text;html=1;strokeColor=none;fillColor=none;align=center;verticalAlign=middle;whiteSpace=wrap;rounded=0;" parent="ZYwFMBQIWgv-eiatx3Tv-25" vertex="1">
                    <mxGeometry x="840" y="110" width="60" height="30" as="geometry"/>
                </mxCell>
                <mxCell id="ZYwFMBQIWgv-eiatx3Tv-39" value="" style="endArrow=classic;html=1;rounded=0;exitX=1;exitY=0.25;exitDx=0;exitDy=0;" parent="ZYwFMBQIWgv-eiatx3Tv-25" source="ZYwFMBQIWgv-eiatx3Tv-34" edge="1">
                    <mxGeometry width="50" height="50" relative="1" as="geometry">
                        <mxPoint x="780" y="330" as="sourcePoint"/>
                        <mxPoint x="850" y="130" as="targetPoint"/>
                        <Array as="points">
                            <mxPoint x="800" y="130"/>
                        </Array>
                    </mxGeometry>
                </mxCell>
                <mxCell id="2" style="edgeStyle=none;html=1;exitX=1;exitY=0.5;exitDx=0;exitDy=0;entryX=0;entryY=0.5;entryDx=0;entryDy=0;" edge="1" parent="ZYwFMBQIWgv-eiatx3Tv-25" source="ZYwFMBQIWgv-eiatx3Tv-47" target="1">
                    <mxGeometry relative="1" as="geometry"/>
                </mxCell>
                <mxCell id="ZYwFMBQIWgv-eiatx3Tv-47" value="compareHashes" style="rounded=0;whiteSpace=wrap;html=1;" parent="ZYwFMBQIWgv-eiatx3Tv-25" vertex="1">
                    <mxGeometry x="1980" y="50" width="230" height="40" as="geometry"/>
                </mxCell>
                <mxCell id="ZYwFMBQIWgv-eiatx3Tv-49" value="" style="points=[[0.145,0.145,0],[0.5,0,0],[0.855,0.145,0],[1,0.5,0],[0.855,0.855,0],[0.5,1,0],[0.145,0.855,0],[0,0.5,0]];shape=mxgraph.bpmn.event;html=1;verticalLabelPosition=bottom;labelBackgroundColor=#ffffff;verticalAlign=top;align=center;perimeter=ellipsePerimeter;outlineConnect=0;aspect=fixed;outline=end;symbol=terminate2;strokeWidth=2;fillColor=#E6E6E6;" parent="ZYwFMBQIWgv-eiatx3Tv-25" vertex="1">
                    <mxGeometry x="2378" y="10" width="50" height="50" as="geometry"/>
                </mxCell>
                <mxCell id="ZYwFMBQIWgv-eiatx3Tv-35" value="return&amp;nbsp;fileLength" style="text;html=1;strokeColor=none;fillColor=none;align=center;verticalAlign=middle;whiteSpace=wrap;rounded=0;" parent="ZYwFMBQIWgv-eiatx3Tv-25" vertex="1">
                    <mxGeometry x="1165" y="55" width="150" height="30" as="geometry"/>
                </mxCell>
                <mxCell id="ZYwFMBQIWgv-eiatx3Tv-56" value="" style="edgeStyle=orthogonalEdgeStyle;rounded=0;orthogonalLoop=1;jettySize=auto;html=1;entryX=0;entryY=0.5;entryDx=0;entryDy=0;endArrow=none;" parent="ZYwFMBQIWgv-eiatx3Tv-25" source="ZYwFMBQIWgv-eiatx3Tv-29" target="ZYwFMBQIWgv-eiatx3Tv-35" edge="1">
                    <mxGeometry relative="1" as="geometry">
                        <mxPoint x="1150" y="70" as="sourcePoint"/>
                        <mxPoint x="1340" y="70" as="targetPoint"/>
                    </mxGeometry>
                </mxCell>
                <mxCell id="ZYwFMBQIWgv-eiatx3Tv-32" value="yes" style="text;html=1;align=center;verticalAlign=middle;resizable=0;points=[];autosize=1;strokeColor=none;fillColor=none;" parent="ZYwFMBQIWgv-eiatx3Tv-25" vertex="1">
                    <mxGeometry x="860" y="60" width="30" height="20" as="geometry"/>
                </mxCell>
                <mxCell id="ZYwFMBQIWgv-eiatx3Tv-57" value="" style="edgeStyle=orthogonalEdgeStyle;rounded=0;orthogonalLoop=1;jettySize=auto;html=1;endArrow=none;" parent="ZYwFMBQIWgv-eiatx3Tv-25" source="ZYwFMBQIWgv-eiatx3Tv-31" target="ZYwFMBQIWgv-eiatx3Tv-32" edge="1">
                    <mxGeometry relative="1" as="geometry">
                        <mxPoint x="480" y="260" as="sourcePoint"/>
                        <mxPoint x="560" y="260" as="targetPoint"/>
                    </mxGeometry>
                </mxCell>
                <mxCell id="ZYwFMBQIWgv-eiatx3Tv-52" value="return&amp;nbsp;sha256FileHash&amp;nbsp;" style="text;html=1;strokeColor=none;fillColor=none;align=center;verticalAlign=middle;whiteSpace=wrap;rounded=0;" parent="ZYwFMBQIWgv-eiatx3Tv-25" vertex="1">
                    <mxGeometry x="1710" y="55" width="150" height="30" as="geometry"/>
                </mxCell>
                <mxCell id="ZYwFMBQIWgv-eiatx3Tv-51" style="edgeStyle=orthogonalEdgeStyle;rounded=0;orthogonalLoop=1;jettySize=auto;html=1;startArrow=none;" parent="ZYwFMBQIWgv-eiatx3Tv-25" source="ZYwFMBQIWgv-eiatx3Tv-52" edge="1">
                    <mxGeometry relative="1" as="geometry">
                        <mxPoint x="1970" y="70" as="targetPoint"/>
                    </mxGeometry>
                </mxCell>
                <mxCell id="1" value="hashes match?" style="rhombus;whiteSpace=wrap;html=1;" vertex="1" parent="ZYwFMBQIWgv-eiatx3Tv-25">
                    <mxGeometry x="2230" y="30" width="80" height="80" as="geometry"/>
                </mxCell>
                <mxCell id="3" value="" style="points=[[0.145,0.145,0],[0.5,0,0],[0.855,0.145,0],[1,0.5,0],[0.855,0.855,0],[0.5,1,0],[0.145,0.855,0],[0,0.5,0]];shape=mxgraph.bpmn.event;html=1;verticalLabelPosition=bottom;labelBackgroundColor=#ffffff;verticalAlign=top;align=center;perimeter=ellipsePerimeter;outlineConnect=0;aspect=fixed;outline=end;symbol=terminate2;strokeWidth=2;fillColor=#E6E6E6;" vertex="1" parent="ZYwFMBQIWgv-eiatx3Tv-25">
                    <mxGeometry x="2378" y="85" width="50" height="50" as="geometry"/>
                </mxCell>
                <mxCell id="9" value="file is integer" style="text;html=1;align=center;verticalAlign=middle;resizable=0;points=[];autosize=1;strokeColor=none;fillColor=none;" vertex="1" parent="ZYwFMBQIWgv-eiatx3Tv-25">
                    <mxGeometry x="2363" y="60" width="80" height="20" as="geometry"/>
                </mxCell>
                <mxCell id="ZYwFMBQIWgv-eiatx3Tv-26" value="blockchainService.py" style="swimlane;startSize=20;horizontal=0;" parent="ZYwFMBQIWgv-eiatx3Tv-24" vertex="1">
                    <mxGeometry x="20" y="170" width="2480" height="170" as="geometry"/>
                </mxCell>
                <mxCell id="ZYwFMBQIWgv-eiatx3Tv-41" value="getFileHash()" style="rounded=0;whiteSpace=wrap;html=1;" parent="ZYwFMBQIWgv-eiatx3Tv-26" vertex="1">
                    <mxGeometry x="1660" y="80" width="230" height="40" as="geometry"/>
                </mxCell>
                <mxCell id="ZYwFMBQIWgv-eiatx3Tv-60" value="return ETHFileHash" style="text;html=1;strokeColor=none;fillColor=none;align=center;verticalAlign=middle;whiteSpace=wrap;rounded=0;" parent="ZYwFMBQIWgv-eiatx3Tv-26" vertex="1">
                    <mxGeometry x="1960" y="85" width="70" height="30" as="geometry"/>
                </mxCell>
                <mxCell id="ZYwFMBQIWgv-eiatx3Tv-62" value="" style="endArrow=none;html=1;rounded=0;exitX=1;exitY=0.5;exitDx=0;exitDy=0;" parent="ZYwFMBQIWgv-eiatx3Tv-26" source="ZYwFMBQIWgv-eiatx3Tv-41" edge="1">
                    <mxGeometry width="50" height="50" relative="1" as="geometry">
                        <mxPoint x="1451" y="290" as="sourcePoint"/>
                        <mxPoint x="1950" y="100" as="targetPoint"/>
                        <Array as="points"/>
                    </mxGeometry>
                </mxCell>
                <mxCell id="ZYwFMBQIWgv-eiatx3Tv-69" value="" style="endArrow=none;dashed=1;html=1;dashPattern=1 3;strokeWidth=2;rounded=0;" parent="ZYwFMBQIWgv-eiatx3Tv-26" edge="1">
                    <mxGeometry width="50" height="50" relative="1" as="geometry">
                        <mxPoint x="1600" y="310" as="sourcePoint"/>
                        <mxPoint x="1600" y="-320" as="targetPoint"/>
                    </mxGeometry>
                </mxCell>
                <mxCell id="ZYwFMBQIWgv-eiatx3Tv-59" value="" style="endArrow=classic;html=1;rounded=0;entryX=0.6;entryY=1.025;entryDx=0;entryDy=0;entryPerimeter=0;startArrow=none;exitX=1;exitY=0.5;exitDx=0;exitDy=0;" parent="ZYwFMBQIWgv-eiatx3Tv-24" source="ZYwFMBQIWgv-eiatx3Tv-60" target="ZYwFMBQIWgv-eiatx3Tv-47" edge="1">
                    <mxGeometry width="50" height="50" relative="1" as="geometry">
                        <mxPoint x="2130" y="270" as="sourcePoint"/>
                        <mxPoint x="1890" y="320" as="targetPoint"/>
                        <Array as="points">
                            <mxPoint x="2138" y="270"/>
                        </Array>
                    </mxGeometry>
                </mxCell>
                <mxCell id="0" style="edgeStyle=none;html=1;exitX=0.25;exitY=1;exitDx=0;exitDy=0;entryX=0.5;entryY=0;entryDx=0;entryDy=0;" edge="1" parent="ZYwFMBQIWgv-eiatx3Tv-24" source="ZYwFMBQIWgv-eiatx3Tv-47" target="ZYwFMBQIWgv-eiatx3Tv-41">
                    <mxGeometry relative="1" as="geometry">
                        <Array as="points">
                            <mxPoint x="1795" y="90"/>
                        </Array>
                    </mxGeometry>
                </mxCell>
                <mxCell id="ZYwFMBQIWgv-eiatx3Tv-30" value="hashFile(0 : fileLength)" style="rounded=0;whiteSpace=wrap;html=1;" parent="WIyWlLk6GJQsqaUBKTNV-1" vertex="1">
                    <mxGeometry x="980" y="240" width="230" height="40" as="geometry"/>
                </mxCell>
                <mxCell id="ZYwFMBQIWgv-eiatx3Tv-38" style="edgeStyle=orthogonalEdgeStyle;rounded=0;orthogonalLoop=1;jettySize=auto;html=1;entryX=0;entryY=0.5;entryDx=0;entryDy=0;startArrow=none;" parent="WIyWlLk6GJQsqaUBKTNV-1" source="ZYwFMBQIWgv-eiatx3Tv-35" target="ZYwFMBQIWgv-eiatx3Tv-30" edge="1">
                    <mxGeometry relative="1" as="geometry"/>
                </mxCell>
                <mxCell id="ZYwFMBQIWgv-eiatx3Tv-58" value="" style="edgeStyle=orthogonalEdgeStyle;rounded=0;orthogonalLoop=1;jettySize=auto;html=1;entryX=0;entryY=0.5;entryDx=0;entryDy=0;endArrow=none;" parent="WIyWlLk6GJQsqaUBKTNV-1" source="ZYwFMBQIWgv-eiatx3Tv-30" target="ZYwFMBQIWgv-eiatx3Tv-52" edge="1">
                    <mxGeometry relative="1" as="geometry">
                        <mxPoint x="1210" y="260" as="sourcePoint"/>
                        <mxPoint x="1660" y="260" as="targetPoint"/>
                    </mxGeometry>
                </mxCell>
                <mxCell id="ZYwFMBQIWgv-eiatx3Tv-66" value="" style="endArrow=classic;html=1;rounded=0;exitX=0.5;exitY=1;exitDx=0;exitDy=0;entryX=0.5;entryY=0;entryDx=0;entryDy=0;" parent="WIyWlLk6GJQsqaUBKTNV-1" source="ZYwFMBQIWgv-eiatx3Tv-41" target="ZYwFMBQIWgv-eiatx3Tv-65" edge="1">
                    <mxGeometry width="50" height="50" relative="1" as="geometry">
                        <mxPoint x="1360" y="570" as="sourcePoint"/>
                        <mxPoint x="1410" y="520" as="targetPoint"/>
                    </mxGeometry>
                </mxCell>
                <mxCell id="4" style="edgeStyle=none;html=1;exitX=1;exitY=0;exitDx=0;exitDy=0;" edge="1" parent="WIyWlLk6GJQsqaUBKTNV-1" source="1">
                    <mxGeometry relative="1" as="geometry">
                        <mxPoint x="2010" y="230" as="targetPoint"/>
                    </mxGeometry>
                </mxCell>
                <mxCell id="7" value="yes&lt;br&gt;" style="edgeLabel;html=1;align=center;verticalAlign=middle;resizable=0;points=[];" vertex="1" connectable="0" parent="4">
                    <mxGeometry x="-0.1323" y="-2" relative="1" as="geometry">
                        <mxPoint as="offset"/>
                    </mxGeometry>
                </mxCell>
                <mxCell id="6" value="no" style="edgeStyle=none;html=1;exitX=1;exitY=1;exitDx=0;exitDy=0;" edge="1" parent="WIyWlLk6GJQsqaUBKTNV-1" source="1">
                    <mxGeometry relative="1" as="geometry">
                        <mxPoint x="2010" y="300" as="targetPoint"/>
                    </mxGeometry>
                </mxCell>
                <mxCell id="8" value="file is not integer" style="text;html=1;align=center;verticalAlign=middle;resizable=0;points=[];autosize=1;strokeColor=none;fillColor=none;" vertex="1" parent="WIyWlLk6GJQsqaUBKTNV-1">
                    <mxGeometry x="2000" y="330" width="100" height="20" as="geometry"/>
                </mxCell>
            </root>
        </mxGraphModel>
    </diagram>
</mxfile>